<?xml version="1.0" encoding="UTF-8"?>
<svg xmlns="http://www.w3.org/2000/svg" version="1.1" viewBox="0 0 800 800">
  <defs>
    <style>
      .cls-1 {
        fill: #fff;
      }
    </style>
  </defs>
  <!-- Generator: Adobe Illustrator 28.7.1, SVG Export Plug-In . SVG Version: 1.2.0 Build 142)  -->
  <g>
    <g id="_Слой_1" data-name="Слой_1">
      <g>
        <path class="cls-1" d="M85.71,388.64v11.23c0,.53-.12.95-.37,1.26-.25.31-.57.47-.96.47-.26,0-.59-.08-.99-.25l-42.44-19.78c-.99-.46-1.48-1.24-1.48-2.32v-6.83c0-1.12.49-1.9,1.48-2.32l42.44-19.69c.4-.16.72-.25.99-.25.4,0,.72.16.96.47.25.31.37.73.37,1.26v11.13c0,1.09-.51,1.85-1.53,2.27l-25.37,10.58,25.37,10.49c1.02.43,1.53,1.19,1.53,2.27Z"/>
        <path class="cls-1" d="M103.73,408.49c-3.94-1.57-7.62-3.87-11.05-6.9-.53-.43-.79-.91-.79-1.43,0-.43.18-.87.54-1.34l6.68-8.36c.46-.56.94-.84,1.43-.84.36,0,.81.18,1.34.54,2.41,1.81,4.79,3.21,7.15,4.2,2.36.99,4.74,1.48,7.15,1.48,1.65,0,2.97-.32,3.96-.96s1.48-1.56,1.48-2.75c0-.79-.29-1.52-.87-2.18-.58-.66-1.58-1.33-2.99-2-1.42-.68-3.43-1.46-6.03-2.35-4.98-1.68-9.08-3.97-12.32-6.88-3.23-2.9-4.85-6.89-4.85-11.97,0-3.23.8-6.23,2.4-9,1.6-2.77,4.04-5,7.32-6.7,3.28-1.7,7.31-2.55,12.09-2.55,3.3,0,6.69.65,10.16,1.95,3.48,1.3,6.55,3.24,9.22,5.81.46.46.69.92.69,1.38,0,.4-.23.86-.69,1.38l-7.81,8.06c-.43.46-.89.69-1.38.69-.43,0-.89-.2-1.38-.59-1.35-1.09-2.84-1.99-4.48-2.7-1.63-.71-3.26-1.06-4.87-1.06s-2.96.31-3.83.94c-.87.63-1.31,1.48-1.31,2.57,0,.76.32,1.44.96,2.05.64.61,1.67,1.22,3.09,1.83,1.42.61,3.4,1.33,5.94,2.15,5.44,1.75,9.64,4.09,12.61,7.02,2.97,2.94,4.45,6.91,4.45,11.92,0,3.26-.83,6.34-2.5,9.22-1.67,2.89-4.09,5.22-7.27,7-3.18,1.78-6.95,2.67-11.3,2.67-4.68,0-8.99-.78-12.93-2.35Z"/>
        <path class="cls-1" d="M194.02,349.51h9.5c1.32,0,1.98.66,1.98,1.98v55.89c0,1.32-.66,1.98-1.98,1.98h-9.84c-1.09,0-1.85-.51-2.27-1.53l-1.24-2.97c-4.12,3.86-9.3,5.79-15.53,5.79-5.64,0-10.83-1.39-15.58-4.18-4.75-2.79-8.51-6.56-11.28-11.33-2.77-4.76-4.15-9.98-4.15-15.65s1.39-10.82,4.18-15.56c2.79-4.73,6.55-8.48,11.3-11.25s9.92-4.15,15.53-4.15c6.3,0,11.52,1.96,15.68,5.89l1.43-3.36c.43-1.02,1.19-1.53,2.27-1.53ZM182.43,392.67c2.26-1.27,4.04-3.03,5.34-5.29,1.3-2.26,1.95-4.81,1.95-7.64s-.64-5.45-1.93-7.74c-1.29-2.29-3.05-4.1-5.29-5.42-2.24-1.32-4.73-1.98-7.47-1.98s-5.22.65-7.44,1.95c-2.23,1.3-3.97,3.11-5.24,5.42-1.27,2.31-1.9,4.9-1.9,7.77s.63,5.42,1.88,7.67c1.25,2.24,2.98,4,5.17,5.27,2.19,1.27,4.67,1.9,7.44,1.9s5.23-.63,7.49-1.9Z"/>
        <path class="cls-1" d="M301.65,351.12c3.33,2.06,5.9,5.13,7.72,9.2,1.81,4.07,2.72,9.04,2.72,14.91v32.15c0,1.32-.66,1.98-1.98,1.98h-12.86c-1.32,0-1.98-.66-1.98-1.98v-31.56c0-3.69-.86-6.6-2.57-8.73-1.71-2.13-4.17-3.19-7.37-3.19-2.04,0-3.88.52-5.52,1.56-1.63,1.04-2.94,2.42-3.93,4.13-.99,1.71-1.57,3.58-1.73,5.59v32.2c0,1.32-.66,1.98-1.98,1.98h-12.86c-1.32,0-1.98-.66-1.98-1.98v-31.56c0-3.69-.86-6.6-2.57-8.73-1.71-2.13-4.17-3.19-7.37-3.19-2.18,0-4.11.59-5.81,1.76-1.7,1.17-3.03,2.71-3.98,4.62-.96,1.91-1.43,3.94-1.43,6.08v31.01c0,1.32-.66,1.98-1.98,1.98h-12.86c-1.32,0-1.98-.66-1.98-1.98v-55.89c0-1.32.66-1.98,1.98-1.98h9.84c.56,0,1.02.12,1.38.37.36.25.66.64.89,1.16l1.29,3.12c2.34-1.98,4.96-3.49,7.86-4.55,2.9-1.06,6.02-1.58,9.35-1.58,3.89,0,7.35.78,10.39,2.32,3.03,1.55,5.51,3.83,7.42,6.83,2.44-2.93,5.38-5.19,8.83-6.78,3.45-1.58,7.21-2.37,11.3-2.37,4.52,0,8.44,1.03,11.77,3.09Z"/>
        <path class="cls-1" d="M370.94,352.68c4.75,2.77,8.52,6.52,11.3,11.25,2.79,4.73,4.18,9.92,4.18,15.56s-1.38,10.89-4.15,15.65c-2.77,4.77-6.53,8.54-11.28,11.33-4.75,2.79-9.94,4.18-15.58,4.18s-10.19-1.5-14.05-4.5v18.79c0,1.32-.66,1.98-1.98,1.98h-12.86c-1.32,0-1.98-.66-1.98-1.98v-73.45c0-1.32.66-1.98,1.98-1.98h9.5c1.09,0,1.85.51,2.27,1.53l1.43,3.36c4.15-3.92,9.38-5.89,15.68-5.89,5.61,0,10.78,1.38,15.53,4.15ZM362.56,392.67c2.19-1.27,3.92-3.02,5.17-5.27,1.25-2.24,1.88-4.8,1.88-7.67s-.64-5.46-1.9-7.77c-1.27-2.31-3.02-4.11-5.24-5.42-2.23-1.3-4.71-1.95-7.44-1.95s-5.23.66-7.47,1.98c-2.24,1.32-4.01,3.12-5.29,5.42-1.29,2.29-1.93,4.87-1.93,7.74s.65,5.38,1.95,7.64c1.3,2.26,3.08,4.02,5.34,5.29,2.26,1.27,4.76,1.9,7.49,1.9s5.25-.63,7.44-1.9Z"/>
        <path class="cls-1" d="M411.01,409.36h-12.71c-1.32,0-1.98-.66-1.98-1.98v-73.35c0-1.32.66-1.98,1.98-1.98h12.71c1.32,0,1.98.66,1.98,1.98v73.35c0,1.32-.66,1.98-1.98,1.98Z"/>
        <path class="cls-1" d="M437.96,406.64c-4.75-2.8-8.45-6.58-11.1-11.33-2.65-4.75-3.98-9.92-3.98-15.53s1.26-10.89,3.78-15.65c2.52-4.76,6.04-8.56,10.56-11.38,4.52-2.82,9.64-4.23,15.38-4.23,6.2,0,11.57,1.34,16.12,4.01s8.02,6.36,10.41,11.08c2.39,4.72,3.59,10.07,3.59,16.07,0,1.32-.07,2.62-.2,3.91-.13,1.22-.83,1.83-2.08,1.83h-40.31c1.09,3.3,2.95,5.87,5.59,7.72,2.64,1.85,5.64,2.77,9,2.77,2.14,0,4.08-.3,5.81-.92,1.73-.61,3.42-1.49,5.07-2.65.43-.33.86-.49,1.29-.49.53,0,1.01.3,1.43.89l6.08,8.66c.3.43.44.84.44,1.24,0,.56-.26,1.06-.79,1.48-2.74,2.14-5.79,3.8-9.17,4.97-3.38,1.17-7,1.76-10.86,1.76-5.97,0-11.33-1.4-16.08-4.2ZM461.36,365.54c-2.24-1.75-4.98-2.62-8.21-2.62s-5.91.89-8.24,2.67c-2.32,1.78-3.96,4.27-4.92,7.47h26.12c-.92-3.26-2.51-5.77-4.75-7.52Z"/>
        <path class="cls-1" d="M532.68,409.36h-12.86c-1.32,0-1.98-.66-1.98-1.98v-42.29h-4.95c-1.32,0-1.98-.66-1.98-1.98v-11.62c0-1.32.66-1.98,1.98-1.98h4.85v-10.78c0-1.22.59-1.95,1.78-2.18l13.01-2.52c.13-.03.3-.05.5-.05.53,0,.94.17,1.24.49.3.33.45.78.45,1.34v13.7h9.3c1.32,0,1.98.66,1.98,1.98v11.62c0,1.32-.66,1.98-1.98,1.98h-9.35v42.29c0,1.32-.66,1.98-1.98,1.98Z"/>
        <path class="cls-1" d="M563.98,406.64c-4.75-2.8-8.45-6.58-11.1-11.33-2.65-4.75-3.98-9.92-3.98-15.53s1.26-10.89,3.78-15.65c2.52-4.76,6.04-8.56,10.56-11.38,4.52-2.82,9.64-4.23,15.38-4.23,6.2,0,11.57,1.34,16.12,4.01s8.02,6.36,10.41,11.08c2.39,4.72,3.59,10.07,3.59,16.07,0,1.32-.07,2.62-.2,3.91-.13,1.22-.83,1.83-2.08,1.83h-40.31c1.09,3.3,2.95,5.87,5.59,7.72,2.64,1.85,5.64,2.77,9,2.77,2.14,0,4.08-.3,5.81-.92,1.73-.61,3.42-1.49,5.07-2.65.43-.33.86-.49,1.29-.49.53,0,1.01.3,1.43.89l6.08,8.66c.3.43.44.84.44,1.24,0,.56-.26,1.06-.79,1.48-2.74,2.14-5.79,3.8-9.17,4.97-3.38,1.17-7,1.76-10.86,1.76-5.97,0-11.33-1.4-16.08-4.2ZM587.38,365.54c-2.24-1.75-4.98-2.62-8.21-2.62s-5.91.89-8.24,2.67c-2.32,1.78-3.96,4.27-4.92,7.47h26.12c-.92-3.26-2.51-5.77-4.75-7.52Z"/>
        <path class="cls-1" d="M630.85,409.36h-15.68c-.53,0-.95-.12-1.26-.35-.31-.23-.47-.53-.47-.89s.15-.76.44-1.19l19.39-28.14-18.15-26.91c-.3-.46-.45-.86-.45-1.19,0-.36.16-.65.47-.87.31-.21.73-.32,1.26-.32h15.83c1.09,0,1.88.46,2.37,1.38l8.9,15.98,8.85-15.98c.26-.49.58-.85.94-1.06.36-.21.82-.32,1.38-.32h15.93c.53,0,.94.11,1.24.32.3.21.45.5.45.87,0,.4-.13.79-.4,1.19l-17.66,26.91,18.89,28.19c.26.4.4.78.4,1.14s-.15.66-.44.89c-.3.23-.71.35-1.24.35h-15.73c-1.06,0-1.85-.45-2.37-1.33l-10.34-17.56-10.19,17.56c-.53.89-1.32,1.33-2.37,1.33Z"/>
        <path class="cls-1" d="M697.53,409.36h-12.86c-1.32,0-1.98-.66-1.98-1.98v-42.29h-4.95c-1.32,0-1.98-.66-1.98-1.98v-11.62c0-1.32.66-1.98,1.98-1.98h4.85v-10.78c0-1.22.59-1.95,1.78-2.18l13.01-2.52c.13-.03.3-.05.5-.05.53,0,.94.17,1.24.49.3.33.45.78.45,1.34v13.7h9.3c1.32,0,1.98.66,1.98,1.98v11.62c0,1.32-.66,1.98-1.98,1.98h-9.35v42.29c0,1.32-.66,1.98-1.98,1.98Z"/>
        <path class="cls-1" d="M759.05,381.56l-42.44,19.78c-.4.17-.73.25-.99.25-.4,0-.72-.16-.96-.47-.25-.31-.37-.73-.37-1.26v-11.23c0-1.09.51-1.85,1.53-2.27l25.37-10.49-25.37-10.58c-1.02-.43-1.53-1.19-1.53-2.27v-11.13c0-.53.12-.95.37-1.26.25-.31.57-.47.96-.47.26,0,.59.08.99.25l42.44,19.69c.99.43,1.48,1.2,1.48,2.32v6.83c0,1.09-.5,1.86-1.48,2.32Z"/>
      </g>
    </g>
  </g>
</svg>